<?xml version="1.0" encoding="UTF-8" standalone="no"?>
<!-- icon666.com - MILLIONS OF FREE VECTOR ICONS -->

<svg
   id="Layer_1"
   viewBox="0 0 83 71"
   data-name="Layer 1"
   version="1.1"
   sodipodi:docname="add.svg"
   width="83"
   height="71"
   inkscape:version="1.4 (86a8ad7, 2024-10-11)"
   xmlns:inkscape="http://www.inkscape.org/namespaces/inkscape"
   xmlns:sodipodi="http://sodipodi.sourceforge.net/DTD/sodipodi-0.dtd"
   xmlns="http://www.w3.org/2000/svg"
   xmlns:svg="http://www.w3.org/2000/svg">
  <defs
     id="defs1" />
  <sodipodi:namedview
     id="namedview1"
     pagecolor="#ffffff"
     bordercolor="#000000"
     borderopacity="0.25"
     inkscape:showpageshadow="2"
     inkscape:pageopacity="0.0"
     inkscape:pagecheckerboard="0"
     inkscape:deskcolor="#d1d1d1"
     inkscape:zoom="5.6679687"
     inkscape:cx="35.10958"
     inkscape:cy="93.419711"
     inkscape:window-width="3200"
     inkscape:window-height="1711"
     inkscape:window-x="-9"
     inkscape:window-y="-9"
     inkscape:window-maximized="1"
     inkscape:current-layer="Layer_1" />
  <path
     d="m 44.252125,18.4088 a 2.1943429,2.1943429 0 0 0 2.187525,2.187525 h 6.752823 v 6.744383 a 2.1875255,2.1875255 0 1 0 4.375051,0 v -6.744383 h 6.751037 a 2.1875251,2.1875251 0 0 0 0,-4.375049 H 57.567036 V 9.4637445 a 2.1875251,2.1875251 0 0 0 -4.37505,0 V 16.221276 H 46.439163 A 2.1857395,2.1857395 0 0 0 44.251638,18.4088 Z M 2.3669282,12.900867 H 19.000462 a 0.92169542,0.92169542 0 0 1 0.923482,0.716838 l 9.669035,37.602836 a 2.1862265,2.1862265 0 0 0 2.119349,1.639507 h 46.933259 v 4.765123 h -4.489171 a 6.8248963,6.8248963 0 1 1 -5.086203,0 h -32.24181 a 6.8292795,6.8292795 0 1 1 -4.069875,0 H 26.325652 L 16.472375,19.30566 a 2.1855771,2.1855771 0 0 0 -2.11805,-1.639508 H 2.3669282 a 2.3826427,2.3826427 0 0 1 0,-4.765285 z M 34.06218,21.376958 33.98199,20.575385 q -0.10811,-1.080451 -0.108272,-2.166909 c 0,-0.345433 0.0086,-0.690379 0.02386,-1.035487 l 0.03376,-0.761316 h -8.718772 l 1.22119,4.765285 z M 55.379512,1.2739989 A 17.134801,17.134801 0 1 1 38.247469,18.4088 17.15217,17.15217 0 0 1 55.379512,1.2739989 Z M 83.098548,16.611997 h -6.269573 l 0.03377,0.761317 c 0.01526,0.345108 0.02402,0.690054 0.02402,1.035486 a 21.394761,21.394761 0 0 1 -0.109571,2.165611 l -0.08116,0.802872 h 6.402517 z M 73.741022,48.48581 H 33.406214 L 27.55999,25.752333 h 7.600497 l 0.181158,0.463607 a 21.510826,21.510826 0 0 0 40.077029,0 l 0.181161,-0.463607 h 3.987412 z"
     fill="#4caf50"
     fill-rule="evenodd"
     id="path1"
     style="stroke-width:0.162327" />
</svg>
