<?xml version="1.0" encoding="UTF-8" standalone="no"?>
<svg
   viewBox="0 0 64 72"
   width="64"
   height="72"
   version="1.1"
   id="svg6"
   sodipodi:docname="del.svg"
   inkscape:version="1.4 (86a8ad7, 2024-10-11)"
   xmlns:inkscape="http://www.inkscape.org/namespaces/inkscape"
   xmlns:sodipodi="http://sodipodi.sourceforge.net/DTD/sodipodi-0.dtd"
   xmlns="http://www.w3.org/2000/svg"
   xmlns:svg="http://www.w3.org/2000/svg">
  <defs
     id="defs6" />
  <sodipodi:namedview
     id="namedview6"
     pagecolor="#ffffff"
     bordercolor="#000000"
     borderopacity="0.25"
     inkscape:showpageshadow="2"
     inkscape:pageopacity="0.0"
     inkscape:pagecheckerboard="0"
     inkscape:deskcolor="#d1d1d1"
     inkscape:zoom="6.0174787"
     inkscape:cx="40.548544"
     inkscape:cy="60.40736"
     inkscape:window-width="1920"
     inkscape:window-height="1111"
     inkscape:window-x="1014"
     inkscape:window-y="2151"
     inkscape:window-maximized="1"
     inkscape:current-layer="svg6" />
  <path
     fill="#f37e98"
     d="m 7,18 3.645,47.383 C 10.845,67.988 13.017,70 15.63,70 h 32.74 c 2.613,0 4.785,-2.012 4.985,-4.617 L 57,18"
     id="path1" />
  <path
     fill="#f15b6c"
     d="m 47,26 v 35 c 0,1.65 -1.35,3 -3,3 -1.65,0 -3,-1.35 -3,-3 V 26 c 0,-1.65 1.35,-3 3,-3 1.65,0 3,1.35 3,3 z m -12,0 v 35 c 0,1.65 -1.35,3 -3,3 -1.65,0 -3,-1.35 -3,-3 V 26 c 0,-1.65 1.35,-3 3,-3 1.65,0 3,1.35 3,3 z m -12,0 v 35 c 0,1.65 -1.35,3 -3,3 -1.65,0 -3,-1.35 -3,-3 V 26 c 0,-1.65 1.35,-3 3,-3 1.65,0 3,1.35 3,3 z M 59,12 H 55 L 53.165,8.942 C 52.442,7.737 51.14,7 49.735,7 H 14.265 C 12.86,7 11.558,7.737 10.835,8.942 L 9,12 H 5 c -1.657,0 -3,1.343 -3,3 0,1.657 1.343,3 3,3 h 54 c 1.657,0 3,-1.343 3,-3 0,-1.657 -1.343,-3 -3,-3 z"
     id="path2" />
  <path
     fill="#1f212b"
     d="M 48.37,71 H 15.63 C 12.514,71 9.886,68.566 9.648,65.46 L 6.003,18.077 7.997,17.923 11.642,65.307 C 11.801,67.378 13.553,69 15.63,69 h 32.74 c 2.077,0 3.829,-1.622 3.988,-3.692 l 3.645,-47.385 1.994,0.154 -3.645,47.384 C 54.113,68.566 51.485,71 48.37,71 Z M 38,8 C 37.448,8 37,7.553 37,7 V 4 C 37,3.448 36.551,3 36,3 H 28 C 27.449,3 27,3.448 27,4 V 7 C 27,7.553 26.552,8 26,8 25.448,8 25,7.553 25,7 V 4 c 0,-1.654 1.346,-3 3,-3 h 8 c 1.654,0 3,1.346 3,3 v 3 c 0,0.553 -0.448,1 -1,1 z"
     id="path3" />
  <path
     fill="#1f212b"
     d="M 59,19 H 5 C 2.794,19 1,17.206 1,15 1,12.794 2.794,11 5,11 H 8.434 L 9.977,8.428 C 10.875,6.931 12.518,6 14.265,6 h 35.471 c 1.747,0 3.389,0.931 4.287,2.428 L 55.566,11 H 59 c 2.206,0 4,1.794 4,4 0,2.206 -1.794,4 -4,4 z M 5,13 c -1.103,0 -2,0.897 -2,2 0,1.103 0.897,2 2,2 h 54 c 1.103,0 2,-0.897 2,-2 0,-1.103 -0.897,-2 -2,-2 h -4 c -0.351,0 -0.677,-0.185 -0.857,-0.485 L 52.308,9.457 C 51.769,8.559 50.783,8 49.735,8 H 14.265 C 13.217,8 12.232,8.559 11.693,9.457 L 9.858,12.515 C 9.677,12.815 9.351,13 9,13 Z"
     id="path4" />
  <path
     fill="#1f212b"
     d="M 43.5,13 H 7.5 C 7.224,13 7,12.776 7,12.5 7,12.224 7.224,12 7.5,12 h 36 c 0.276,0 0.5,0.224 0.5,0.5 0,0.276 -0.224,0.5 -0.5,0.5 z m 12,0 h -5 C 50.224,13 50,12.776 50,12.5 50,12.224 50.224,12 50.5,12 h 5 c 0.276,0 0.5,0.224 0.5,0.5 0,0.276 -0.224,0.5 -0.5,0.5 z m -7,0 h -2 C 46.224,13 46,12.776 46,12.5 46,12.224 46.224,12 46.5,12 h 2 c 0.276,0 0.5,0.224 0.5,0.5 0,0.276 -0.224,0.5 -0.5,0.5 z M 32,64 c -1.654,0 -3,-1.346 -3,-3 V 26 c 0,-1.654 1.346,-3 3,-3 1.654,0 3,1.346 3,3 V 51.5 C 35,51.776 34.776,52 34.5,52 34.224,52 34,51.776 34,51.5 V 26 c 0,-1.103 -0.897,-2 -2,-2 -1.103,0 -2,0.897 -2,2 v 35 c 0,1.103 0.897,2 2,2 1.103,0 2,-0.897 2,-2 v -3.5 c 0,-0.276 0.224,-0.5 0.5,-0.5 0.276,0 0.5,0.224 0.5,0.5 V 61 c 0,1.654 -1.346,3 -3,3 z m 12,0 c -1.654,0 -3,-1.346 -3,-3 V 35.5 c 0,-0.276 0.224,-0.5 0.5,-0.5 0.276,0 0.5,0.224 0.5,0.5 V 61 c 0,1.103 0.897,2 2,2 1.103,0 2,-0.897 2,-2 V 26 c 0,-1.103 -0.897,-2 -2,-2 -1.103,0 -2,0.897 -2,2 v 1.5 C 42,27.776 41.776,28 41.5,28 41.224,28 41,27.776 41,27.5 V 26 c 0,-1.654 1.346,-3 3,-3 1.654,0 3,1.346 3,3 v 35 c 0,1.654 -1.346,3 -3,3 z"
     id="path5" />
  <path
     fill="#1f212b"
     d="M 41.5,33 C 41.224,33 41,32.776 41,32.5 v -2 c 0,-0.276 0.224,-0.5 0.5,-0.5 0.276,0 0.5,0.224 0.5,0.5 v 2 C 42,32.776 41.776,33 41.5,33 Z M 20,64 c -1.654,0 -3,-1.346 -3,-3 V 26 c 0,-1.654 1.346,-3 3,-3 1.654,0 3,1.346 3,3 v 35 c 0,1.654 -1.346,3 -3,3 z m 0,-40 c -1.103,0 -2,0.897 -2,2 v 35 c 0,1.103 0.897,2 2,2 1.103,0 2,-0.897 2,-2 V 26 c 0,-1.103 -0.897,-2 -2,-2 z"
     id="path6" />
</svg>
