<?xml version="1.0" encoding="UTF-8" standalone="no"?>
<!-- icon666.com - MILLIONS OF FREE VECTOR ICONS -->

<svg
   id="Capa_1"
   enable-background="new 0 0 511.987 511.987"
   viewBox="0 0 50 45"
   version="1.1"
   sodipodi:docname="heart.svg"
   width="50"
   height="45"
   inkscape:version="1.4 (86a8ad7, 2024-10-11)"
   xmlns:inkscape="http://www.inkscape.org/namespaces/inkscape"
   xmlns:sodipodi="http://sodipodi.sourceforge.net/DTD/sodipodi-0.dtd"
   xmlns="http://www.w3.org/2000/svg"
   xmlns:svg="http://www.w3.org/2000/svg">
  <defs
     id="defs2" />
  <sodipodi:namedview
     id="namedview2"
     pagecolor="#ffffff"
     bordercolor="#000000"
     borderopacity="0.25"
     inkscape:showpageshadow="2"
     inkscape:pageopacity="0.0"
     inkscape:pagecheckerboard="0"
     inkscape:deskcolor="#d1d1d1"
     inkscape:zoom="22.627417"
     inkscape:cx="28.0633"
     inkscape:cy="13.412932"
     inkscape:window-width="3200"
     inkscape:window-height="1711"
     inkscape:window-x="-9"
     inkscape:window-y="-9"
     inkscape:window-maximized="1"
     inkscape:current-layer="Capa_1" />
  <path
     d="m 17.899114,36.397449 c 1.786585,1.46988 7.115028,5.940011 7.115028,5.940011 0,0 5.516172,-4.610874 7.396239,-6.142299 2.951368,-2.404092 5.500436,-4.480237 7.677446,-6.513691 4.188649,-3.912287 8.064628,-8.368087 8.064628,-14.428474 0,-3.498054 -1.229262,-6.7755656 -3.461183,-9.2285326 -2.356714,-2.5900896 -5.623231,-4.0165247 -9.198099,-4.0165247 -3.292273,0 -6.282206,1.285994 -8.646631,3.7188987 -0.658516,0.677616 -1.221085,1.391286 -1.698817,2.095453 -0.47788,-0.704167 -1.040451,-1.417837 -1.698966,-2.095453 -2.364429,-2.4329047 -5.35436,-3.7188987 -8.646634,-3.7188987 -3.574868,0 -6.8788653,1.4157253 -9.3036083,3.9865057 -2.336197,2.47665 -3.622841,5.7647216 -3.622841,9.2585516 0,3.76883 1.496279,7.242447 4.708645,10.931475 2.776905,3.188812 6.7334023,6.443849 11.3147933,10.212978 z"
     id="path1"
     style="fill:#ffffff;fill-opacity:1;stroke:#000000;stroke-width:3.66794;stroke-dasharray:none;stroke-opacity:1"
     sodipodi:nodetypes="ccccscscccscscc" />
</svg>
