<?xml version="1.0" encoding="UTF-8" standalone="no"?>
<!-- icon666.com - MILLIONS OF FREE VECTOR ICONS -->

<svg
   id="Capa_1"
   enable-background="new 0 0 511.987 511.987"
   viewBox="0 0 50 45"
   version="1.1"
   sodipodi:docname="heart_red.svg"
   width="50"
   height="45"
   inkscape:version="1.4 (86a8ad7, 2024-10-11)"
   xmlns:inkscape="http://www.inkscape.org/namespaces/inkscape"
   xmlns:sodipodi="http://sodipodi.sourceforge.net/DTD/sodipodi-0.dtd"
   xmlns="http://www.w3.org/2000/svg"
   xmlns:svg="http://www.w3.org/2000/svg">
  <defs
     id="defs2" />
  <sodipodi:namedview
     id="namedview2"
     pagecolor="#ffffff"
     bordercolor="#000000"
     borderopacity="0.25"
     inkscape:showpageshadow="2"
     inkscape:pageopacity="0.0"
     inkscape:pagecheckerboard="0"
     inkscape:deskcolor="#d1d1d1"
     inkscape:zoom="22.627417"
     inkscape:cx="38.272155"
     inkscape:cy="20.218835"
     inkscape:window-width="3200"
     inkscape:window-height="1711"
     inkscape:window-x="-9"
     inkscape:window-y="-9"
     inkscape:window-maximized="1"
     inkscape:current-layer="Capa_1" />
  <path
     d="m 17.330275,37.941123 c 1.926705,1.620948 7.673048,6.550499 7.673048,6.550499 0,0 5.948796,-5.084759 7.976312,-6.773579 3.182838,-2.651173 5.931826,-4.940694 8.279574,-7.183138 4.517156,-4.314374 8.697121,-9.22812 8.697121,-15.911368 0,-3.857568 -1.32567,-7.4719277 -3.732637,-10.1769997 C 43.682146,1.59025 40.159444,0.01721268 36.304205,0.01721268 c -3.550481,0 -6.774907,1.41816252 -9.32477,4.10110962 C 26.269273,4.8655816 25.662583,5.6525994 25.147383,6.4291367 24.632024,5.6525994 24.025332,4.8655816 23.315171,4.1183223 20.765303,1.4353752 17.540877,0.01721268 13.990396,0.01721268 c -3.855239,0 -7.4183607,1.56122612 -10.033271,4.39622042 -2.5194206,2.7311893 -3.90697414,6.3571939 -3.90697414,10.2101039 0,4.156174 1.61363004,7.986793 5.07793604,12.054964 2.9946925,3.516544 7.2614901,7.106117 12.2021881,11.262622 z"
     id="path1"
     style="fill:#ff0000;stroke:none;stroke-width:0.166354;stroke-opacity:1"
     sodipodi:nodetypes="ccccscscccscscc" />
</svg>
